<?xml version="1.0" standalone="no"?>
<!DOCTYPE svg PUBLIC "-//W3C//DTD SVG 1.1//EN" "http://www.w3.org/Graphics/SVG/1.1/DTD/svg11.dtd" >
<svg xmlns="http://www.w3.org/2000/svg">
<metadata></metadata>
<defs>
<font id="eausans_bold_lining_oblique" horiz-adv-x="1334" >
<font-face units-per-em="2048" ascent="1593" descent="-455" />
<missing-glyph horiz-adv-x="530" />
<glyph horiz-adv-x="2048" />
<glyph horiz-adv-x="2048" />
<glyph unicode="&#xd;" horiz-adv-x="2048" />
<glyph unicode=" "  horiz-adv-x="530" />
<glyph unicode="&#x09;" horiz-adv-x="530" />
<glyph unicode="&#xa0;" horiz-adv-x="530" />
<glyph unicode="!" horiz-adv-x="629" d="M55 0l59 278h288l-58 -278h-289zM191 425l169 1092h326l-298 -1092h-197z" />
<glyph unicode="&#x22;" horiz-adv-x="1001" d="M240 1009l173 508h291l-302 -508h-162zM657 1009l173 508h291l-302 -508h-162z" />
<glyph unicode="#" horiz-adv-x="1228" d="M52 569l38 182h238l132 315h-207l40 181h243l112 270h189l-113 -270h218l112 270h188l-112 -270h203l-39 -181h-240l-130 -315h205l-38 -182h-241l-111 -266h-190l109 266h-215l-109 -266h-191l110 266h-201zM519 751h217l130 315h-217z" />
<glyph unicode="$" horiz-adv-x="1066" d="M-8 220l190 156q73 -97 211 -114l88 413q-36 13 -61 23.5t-58 26.5t-55 33t-46 39.5t-37.5 50t-23 61t-8.5 75t11 89.5q14 67 50.5 129t91.5 114.5t132.5 90t168.5 52.5l46 210h174l-44 -204q221 -17 339 -166l-190 -157q-75 96 -193 113l-80 -378q37 -13 62 -23.5 t60 -26.5t57.5 -33t48 -40.5t39.5 -51t24.5 -61.5t10 -77t-11.5 -92q-35 -161 -158 -272.5t-307 -141.5l-44 -210h-174l42 202q-234 18 -355 170zM470 1086q-19 -89 75 -144l62 290q-56 -23 -92 -63t-45 -83zM564 287q59 26 99 72t53 102q11 54 -11 89.5t-71 62.5z" />
<glyph unicode="%" horiz-adv-x="1846" d="M171 1100q41 192 174 312t301 120q167 0 249 -120t41 -312t-173.5 -312.5t-299.5 -120.5q-168 0 -250.5 120.5t-41.5 312.5zM202 -76l1341 1669h194l-1341 -1669h-194zM367 1100q-25 -119 11.5 -191t119.5 -72q84 0 150.5 72t91.5 191t-11 190.5t-119 71.5 q-84 0 -151 -72t-92 -190zM1003 417q41 192 174 312.5t301 120.5q167 0 248.5 -120.5t40.5 -312.5t-173.5 -312t-300.5 -120q-167 0 -249 120t-41 312zM1198 417q-25 -119 11 -190.5t120 -71.5t151 72t92 190q25 119 -11.5 191t-119.5 72q-84 0 -151 -72t-92 -191z" />
<glyph unicode="&#x26;" horiz-adv-x="1486" d="M67 393q30 143 127 250t264 193q-84 105 -109 182.5t-3 179.5q12 58 52 117.5t100.5 111t148.5 84t186 32.5t171.5 -32.5t111 -84t51 -111t1.5 -117.5q-24 -116 -103.5 -206t-230.5 -180l231 -292q76 133 114 314h265q-64 -296 -221 -512l253 -322h-355l-106 135 q-212 -162 -486 -162q-250 0 -375.5 117t-86.5 303zM352 410q-19 -95 44 -160t176 -65q172 0 309 120l-297 376q-103 -55 -158 -119t-74 -152zM605 1191q-12 -59 8.5 -104.5t85.5 -126.5q101 59 148.5 111.5t61.5 119.5q12 56 -21.5 100t-98.5 44q-66 0 -119 -44t-65 -100z " />
<glyph unicode="'" horiz-adv-x="591" d="M244 1009l172 508h292l-303 -508h-161z" />
<glyph unicode="(" horiz-adv-x="758" d="M177.5 508q4.5 122 31.5 251q36 169 111 332t157 282.5t192 249.5l220 -91q-155 -181 -258 -367.5t-150 -405.5q-86 -410 79 -774l-258 -91q-41 95 -67.5 185t-44 198.5t-13 230.5z" />
<glyph unicode=")" horiz-adv-x="758" d="M-38 -15q155 181 258 368t149 406q88 407 -78 773l257 91q41 -95 67.5 -185t44.5 -198t13.5 -230t-31.5 -251q-52 -246 -171 -454.5t-290 -410.5z" />
<glyph unicode="*" horiz-adv-x="852" d="M184 1188l75 141l242 -85l59 273h148l-59 -273l278 85l15 -141l-276 -85l114 -220l-140 -88l-114 221l-207 -221l-101 88l208 220z" />
<glyph unicode="+" horiz-adv-x="1152" d="M106 648l40 189h399l85 399h189l-85 -399h398l-40 -189h-399l-83 -398h-190l84 398h-398z" />
<glyph unicode="," horiz-adv-x="591" d="M-53 -231l171 509h292l-302 -509h-161z" />
<glyph unicode="-" horiz-adv-x="705" d="M76 473l41 190h523l-41 -190h-523z" />
<glyph unicode="." horiz-adv-x="591" d="M36 0l60 278h288l-59 -278h-289z" />
<glyph unicode="/" horiz-adv-x="667" d="M-94 -76l772 1669h175l-773 -1669h-174z" />
<glyph unicode="0" horiz-adv-x="1395" d="M149 347.5q-29 173.5 18 411.5q76 356 275.5 568.5t467.5 212.5q178 0 289 -98t139.5 -271.5t-18.5 -411.5q-76 -356 -275 -569t-467 -213q-178 0 -289 98.5t-140 272zM440.5 345.5q43.5 -140.5 186.5 -140.5q142 0 244.5 140.5t160.5 413.5t15 413t-185 140 q-143 0 -246 -140t-161 -413t-14.5 -413.5z" />
<glyph unicode="1" horiz-adv-x="1395" d="M316 1098l50 234q162 14 294 66t215 119h239l-324 -1517h-268l262 1235q-66 -48 -192 -86t-276 -51z" />
<glyph unicode="2" horiz-adv-x="1395" d="M6 0l41 194q368 252 576 418t292 268.5t104 196.5q22 102 -40.5 167t-189.5 65q-167 0 -329 -124l-137 173q140 98 267.5 142t281.5 44q235 0 355.5 -121t78.5 -316q-27 -123 -115.5 -245.5t-265 -272.5t-467.5 -349h725l-50 -240h-1127z" />
<glyph unicode="3" horiz-adv-x="1395" d="M15 159l210 173q50 -54 135 -89t179 -35q161 0 264 63t124 163q22 100 -56 163t-237 63h-177l50 240h179q150 0 248 60t117 149q19 87 -46 143.5t-212 56.5q-93 0 -190 -33.5t-178 -90.5l-137 173q273 186 568 186q265 0 389 -115.5t81 -311.5q-23 -113 -118 -204.5 t-222 -131.5q127 -29 191 -129t37 -226q-42 -200 -235 -326.5t-483 -126.5q-310 0 -481 186z" />
<glyph unicode="4" horiz-adv-x="1395" d="M18 341l52 248l902 928h281l-199 -936h234l-52 -240h-233l-72 -341h-265l71 341h-719zM340 581h449l126 590z" />
<glyph unicode="5" horiz-adv-x="1395" d="M52 159l209 173q45 -54 131 -89t178 -35q147 0 257 77.5t135 193.5q25 119 -52.5 196t-223.5 77q-54 0 -124 -18t-121 -42l-192 109l151 716h968l-51 -240h-698l-74 -350q47 20 116.5 34t127.5 14q242 0 367.5 -134t79.5 -351q-48 -225 -242 -371t-466 -146 q-319 0 -476 186z" />
<glyph unicode="6" horiz-adv-x="1395" d="M174 759q76 356 295 568.5t522 212.5q268 0 429 -182l-209 -173q-107 120 -273 120q-161 0 -292.5 -129.5t-184.5 -368.5q53 70 160 119t218 49q156 0 264 -61.5t152 -175t12 -262.5q-21 -100 -79.5 -190t-143.5 -159t-200 -109.5t-242 -40.5q-278 0 -392.5 207.5 t-35.5 574.5zM423 476q-24 -114 39.5 -194t186.5 -80q124 0 222.5 80t122.5 194t-40 194.5t-188 80.5q-123 0 -221 -80t-122 -195z" />
<glyph unicode="7" horiz-adv-x="1395" d="M238 0q172 419 380 731.5t465 545.5h-805l51 240h1146l-43 -194q-307 -285 -515.5 -595t-370.5 -728h-308z" />
<glyph unicode="8" horiz-adv-x="1395" d="M90 426q24 117 131.5 222t224.5 133q-88 31 -144 124t-33 204q40 191 210.5 313t430.5 122t379 -122t79 -313q-23 -111 -119.5 -204t-198.5 -124q106 -27 169 -132t39 -223q-41 -194 -225.5 -323.5t-456.5 -129.5q-136 0 -240 35.5t-163.5 97.5t-81 144t-1.5 176z M379 434q-22 -101 41.5 -171t203.5 -70t232.5 70t114.5 171t-41 171t-203 70q-141 0 -233.5 -70t-114.5 -171zM540 1104q-19 -91 40.5 -154.5t190.5 -63.5t217.5 63.5t105.5 154.5t-40.5 155t-190.5 64q-130 0 -217 -64t-106 -155z" />
<glyph unicode="9" horiz-adv-x="1395" d="M67 159l211 173q106 -120 273 -120q160 0 290.5 129t185.5 369q-53 -70 -160 -119t-219 -49q-116 0 -207 35.5t-147 101t-77 157.5t4 205q21 100 79 190t143 159t200.5 109.5t242.5 40.5q278 0 391.5 -207t36.5 -574q-50 -234 -165 -410.5t-283.5 -274t-369.5 -97.5 q-266 0 -429 182zM495 1041q-24 -115 39.5 -195t186.5 -80q124 0 222 80t122 195q24 114 -40 194t-188 80q-123 0 -220.5 -79.5t-121.5 -194.5z" />
<glyph unicode=":" horiz-adv-x="591" d="M36 0l60 278h288l-59 -278h-289zM209 815l60 277h288l-59 -277h-289z" />
<glyph unicode=";" horiz-adv-x="591" d="M-53 -231l171 509h292l-302 -509h-161zM209 815l60 277h288l-59 -277h-289z" />
<glyph unicode="&#x3c;" horiz-adv-x="667" d="M127 607l304 425h264l-304 -425l123 -425h-264z" />
<glyph unicode="=" horiz-adv-x="1152" d="M65 458l41 190h986l-41 -190h-986zM146 837l41 190h986l-41 -190h-986z" />
<glyph unicode="&#x3e;" horiz-adv-x="667" d="M2 182l301 425l-121 425h264l121 -425l-302 -425h-263z" />
<glyph unicode="?" horiz-adv-x="1080" d="M215 0l58 278h288l-57 -278h-289zM218 1358q114 92 231.5 139t255.5 47q113 0 201 -35t140 -94t71.5 -138t0.5 -167q-22 -105 -77 -181t-143 -145q-7 -11 -63.5 -51.5t-62.5 -48.5q-92 -72 -134.5 -125t-59.5 -134h-258q42 200 197 330q6 11 61 52t61 49q54 46 81.5 73 t57 73.5t40.5 100.5q17 81 -31.5 143.5t-141.5 62.5q-143 0 -290 -124z" />
<glyph unicode="@" horiz-adv-x="1729" d="M79 781q8 117 51.5 229.5t119 209t174.5 170t226.5 115.5t265.5 42q233 0 409 -99.5t263 -276t67 -397.5q-17 -188 -141.5 -319.5t-280.5 -131.5q-83 0 -133.5 52t-45.5 132q-38 -85 -131.5 -136.5t-194.5 -51.5q-95 0 -171 56t-112 156t-16 218q34 191 166 312t286 121 q73 0 138.5 -37.5t86.5 -97.5l20 117h204l-104 -591q-14 -97 51 -97q77 0 144.5 93.5t77.5 226.5q14 175 -55.5 312.5t-204.5 212.5t-311 75q-137 0 -259 -53.5t-208 -142.5t-140.5 -206t-64.5 -243q-13 -172 53.5 -314.5t202 -226.5t312.5 -84q125 0 238 46t203 125 l109 -121q-250 -206 -576 -206q-168 0 -309 63t-234 172t-140 258t-36 318zM643 749q-21 -116 25.5 -186t132.5 -70q89 0 160.5 70t92.5 186q20 117 -26.5 187.5t-133.5 70.5q-89 0 -159.5 -70t-91.5 -188z" />
<glyph unicode="A" horiz-adv-x="1441" d="M-115 0l887 1517h311l243 -1517h-308l-47 349h-584l-194 -349h-308zM519 587h422l-82 605z" />
<glyph unicode="B" horiz-adv-x="1342" d="M67 0l323 1517h587q202 0 304 -108q76 -81 77 -191q0 -37 -9 -77q-30 -141 -137.5 -245.5t-257.5 -130.5q152 -16 226 -114q53 -69 52 -163q0 -39 -9 -83q-38 -178 -189 -291.5t-379 -113.5h-588zM399 232h246q120 0 197.5 59t99.5 160q4 22 4 43q0 60 -40 102 q-54 56 -172 56h-246zM536 874h223q108 0 187.5 58t98.5 153q6 29 6 54q-1 55 -29 91q-42 54 -151 55h-247z" />
<glyph unicode="C" horiz-adv-x="1331" d="M137 759q75 352 321 566.5t574 214.5q292 0 436 -182l-209 -173q-91 117 -271 117q-190 0 -343.5 -146.5t-207.5 -396.5q-19 -92 -19 -169q0 -68 14 -124q30 -120 115.5 -185.5t209.5 -65.5q180 0 322 117l135 -173q-222 -182 -515 -182q-216 0 -361 97q-146 96 -198 274 q-27 92 -27 199q0 100 24 212z" />
<glyph unicode="D" horiz-adv-x="1506" d="M67 0l323 1517h450q169 0 300.5 -48t217.5 -143t114 -237q12 -60 11 -127q0 -94 -22 -203q-39 -183 -130 -329t-217 -239t-278 -142t-319 -49h-450zM405 238h156q142 0 263.5 58t211 177.5t125.5 285.5q18 82 18 152q1 141 -71 231q-106 135 -325 135h-156z" />
<glyph unicode="E" horiz-adv-x="1133" d="M67 0l323 1517h822l-50 -240h-535l-84 -394h519l-50 -240h-520l-87 -405h551l-52 -238h-837z" />
<glyph unicode="F" horiz-adv-x="1080" d="M67 0l323 1517h837l-50 -240h-550l-84 -394h534l-50 -240h-535l-137 -643h-288z" />
<glyph unicode="G" horiz-adv-x="1456" d="M137 759q75 353 324 567t589 214q151 0 272 -48.5t189 -133.5l-209 -173q-93 117 -292 117q-201 0 -360 -146t-213 -397q-19 -90 -19 -167q0 -137 62 -229q97 -143 301 -143q118 0 217 41l72 337h-281l51 239h568l-158 -743q-98 -52 -240.5 -84.5t-291.5 -32.5 q-224 0 -373.5 97t-203.5 274q-28 93 -28 200q0 99 24 211z" />
<glyph unicode="H" horiz-adv-x="1501" d="M67 0l323 1517h288l-135 -634h561l135 634h289l-323 -1517h-289l137 643h-561l-137 -643h-288z" />
<glyph unicode="I" horiz-adv-x="652" d="M67 0l323 1517h288l-323 -1517h-288z" />
<glyph unicode="J" horiz-adv-x="1069" d="M-82 161l209 171q29 -54 80.5 -87t118.5 -33q93 0 160.5 59.5t89.5 163.5l231 1082h288l-230 -1082q-45 -211 -209 -338t-381 -127q-234 0 -357 191z" />
<glyph unicode="K" horiz-adv-x="1357" d="M67 0l323 1517h288l-149 -695l676 695h361l-759 -743l458 -774h-364l-393 724l-153 -724h-288z" />
<glyph unicode="L" horiz-adv-x="1019" d="M67 0l323 1517h288l-273 -1279h551l-52 -238h-837z" />
<glyph unicode="M" horiz-adv-x="1941" d="M67 0l323 1517h423l105 -1227l625 1227h425l-324 -1517h-265l261 1227l-625 -1227h-319l-103 1227l-261 -1227h-265z" />
<glyph unicode="N" horiz-adv-x="1539" d="M67 0l323 1517h359l301 -1153l246 1153h270l-324 -1517h-361l-300 1153l-244 -1153h-270z" />
<glyph unicode="O" horiz-adv-x="1577" d="M137 759q75 351 313.5 566t550.5 215q205 0 342.5 -96.5t187.5 -274.5q25 -90 26 -194q0 -102 -25 -216q-75 -351 -313.5 -566.5t-549.5 -215.5q-205 0 -343 97t-188 275q-25 90 -25 194q0 101 24 216zM437 759q-22 -101 -21 -185q0 -124 48 -212q80 -146 255 -147 q170 0 315.5 147.5t198.5 396.5q21 97 21 179q0 127 -50 217q-82 147 -254 147q-175 0 -317 -146t-196 -397z" />
<glyph unicode="P" horiz-adv-x="1269" d="M67 0l323 1517h538q222 -1 336 -131q83 -96 84 -224q0 -46 -11 -97q-42 -195 -209.5 -323.5t-391.5 -128.5h-251l-130 -613h-288zM536 853h224q111 0 186 59t95 151q5 26 5 49q0 60 -36 104q-50 61 -159 61h-224z" />
<glyph unicode="Q" horiz-adv-x="1577" d="M137 759q75 351 313.5 566t550.5 215q205 0 342.5 -96.5t187.5 -274.5q25 -90 25 -194q0 -101 -24 -216q-31 -144 -101 -275.5t-170 -231.5l224 -126l-235 -194l-235 132q-168 -87 -346 -87q-205 0 -343 97t-188 275q-25 90 -25 194q0 101 24 216zM437 759 q-22 -101 -22 -185q0 -125 49 -212q80 -147 255 -147q170 0 315.5 147.5t198.5 396.5q21 97 21 179q0 127 -50 217q-83 147 -254 147q-175 0 -317 -146t-196 -397z" />
<glyph unicode="R" horiz-adv-x="1342" d="M67 0l323 1517h557q96 0 172 -21t123.5 -58.5t77.5 -89t34 -111.5q1 -15 1 -30q0 -46 -9 -97q-27 -124 -122 -226t-221 -136q167 -30 167 -235l-2 -513h-305l6 464v9q1 81 -35 119q-38 42 -124 41h-223l-134 -633h-286zM536 863h218q109 0 190.5 58t102.5 156q6 29 6 54 q-1 57 -31 95q-44 56 -153 56h-244z" />
<glyph unicode="S" horiz-adv-x="1171" d="M-21 159l211 173q98 -127 286 -127q115 0 201 65t106 159q4 18 4 35q1 24 -7 44q-12 36 -42 59t-71 44t-89.5 36.5t-98.5 36.5t-96.5 43.5t-85 56.5t-63.5 77.5t-32 105.5q-2 19 -2 39q0 47 11 101q15 69 49.5 133t90.5 120t126.5 97.5t163 65.5t195.5 24q292 0 441 -189 l-209 -173q-44 56 -111 91.5t-151 35.5q-120 0 -198.5 -57.5t-93.5 -131.5q-4 -19 -4 -36q0 -33 14 -59q22 -40 67.5 -64.5t105 -48.5t122 -45.5t119.5 -57t98 -81.5q40 -45 56 -119q7 -31 6 -67q0 -48 -12 -105q-45 -209 -220 -339.5t-432 -130.5q-301 0 -455 189z" />
<glyph unicode="T" horiz-adv-x="1183" d="M165 1282l50 235h1169l-51 -235h-439l-274 -1282h-288l273 1282h-440z" />
<glyph unicode="U" horiz-adv-x="1509" d="M173 496l217 1021h288l-217 -1021q-10 -43 -10 -80q1 -80 45 -132q64 -76 188 -76t220 76t126 212l217 1021h288l-217 -1021q-36 -167 -135.5 -287t-240 -179.5t-309.5 -59.5q-257 0 -385 138q-91 98 -91 251q0 64 16 137z" />
<glyph unicode="V" horiz-adv-x="1403" d="M211 1517h308l141 -1170l640 1170h307l-868 -1517h-304z" />
<glyph unicode="W" horiz-adv-x="1947" d="M208 1517h297l5 -1176l503 1176h336l3 -1176l506 1176h298l-706 -1517h-340l-3 1170l-500 -1170h-340z" />
<glyph unicode="X" horiz-adv-x="1409" d="M-100 0l669 783l-316 734h361l187 -519l408 519h363l-630 -734l337 -783h-361l-208 566l-451 -566h-359z" />
<glyph unicode="Y" horiz-adv-x="1260" d="M143 1517h361l212 -573l457 573h359l-733 -860l-139 -657h-290l141 657z" />
<glyph unicode="Z" horiz-adv-x="1130" d="M-47 0l47 225l862 1052h-622l51 240h964l-49 -224l-862 -1055h653l-50 -238h-994z" />
<glyph unicode="[" horiz-adv-x="773" d="M50 -76l355 1669h493l-44 -205h-243l-267 -1259h243l-44 -205h-493z" />
<glyph unicode="\" horiz-adv-x="667" d="M261 1593h174l63 -1669h-175z" />
<glyph unicode="]" horiz-adv-x="773" d="M-33 -76l44 205h242l267 1259h-242l44 205h493l-355 -1669h-493z" />
<glyph unicode="^" horiz-adv-x="682" d="M177 1198l261 349h233l112 -349h-194l-66 198l-151 -198h-195z" />
<glyph unicode="_" horiz-adv-x="826" d="M-115 0l35 167h826l-35 -167h-826z" />
<glyph unicode="`" horiz-adv-x="682" d="M331 1547h302l71 -349h-149z" />
<glyph unicode="a" horiz-adv-x="1213" d="M47 299q32 152 182.5 252.5t404.5 100.5h170q14 64 14 85q0 8 -2 9q1 10 1 20q0 56 -45 96q-53 48 -144 48q-140 0 -259 -92l-122 154q211 151 452 151q217 -1 320 -115q75 -83 75 -198q0 -44 -11 -92l-152 -718h-257l34 167q-59 -90 -154 -140t-216 -50q-154 0 -237 94 q-62 70 -62 161q0 32 8 67zM320 319q-3 -15 -4 -30q0 -41 26 -71q34 -41 116 -41q109 0 193.5 74.5t110.5 196.5l6 34h-182q-111 0 -181.5 -48.5t-84.5 -114.5z" />
<glyph unicode="b" horiz-adv-x="1315" d="M52 0l323 1517h265l-123 -572q55 74 158 122t197 48q96 0 174.5 -40t129.5 -114t68 -179q6 -40 6 -83q0 -71 -17 -153q-54 -253 -229.5 -411t-372.5 -158q-100 0 -185 52.5t-103 128.5l-34 -158h-257zM434 546q-13 -61 -13 -112q0 -83 34 -140q55 -92 167 -92t206.5 92 t128.5 252q13 62 13 114q0 84 -33 140q-54 92 -169 92q-112 0 -206.5 -93t-127.5 -253z" />
<glyph unicode="c" horiz-adv-x="1057" d="M78 313q-9 46 -9 96q0 65 16 137q35 166 137 297.5t242 201.5t291 70q206 0 340 -143l-195 -162q-64 82 -181 82q-121 0 -223 -97t-135 -249q-12 -53 -12 -99q1 -86 41 -149q62 -96 182 -96q117 0 215 80l128 -162q-196 -143 -402 -143q-113 0 -205 41t-150 115.5 t-80 179.5z" />
<glyph unicode="d" horiz-adv-x="1315" d="M74 310q-6 40 -6 83q0 71 17 153q27 127 89 235.5t144 180.5t177.5 112.5t191.5 40.5q94 0 176.5 -48t105.5 -122l122 572h265l-321 -1517h-258l33 158q-50 -76 -158 -128.5t-208 -52.5q-95 0 -173.5 40t-129 114t-67.5 179zM361 546q-13 -61 -13 -112q0 -83 34 -140 q55 -92 167 -92t206.5 92t128.5 252q13 61 13 112q0 83 -34 141q-55 93 -167 93q-115 0 -208 -92.5t-127 -253.5z" />
<glyph unicode="e" horiz-adv-x="1168" d="M85 546q53 254 231.5 411.5t404.5 157.5q227 0 331 -153q68 -100 68 -248q0 -78 -19 -168l-16 -73h-733q-1 -18 -1 -35q0 -108 55 -172q64 -76 183 -76q135 0 238 85l121 -155q-195 -143 -420 -143q-161 0 -274.5 70t-159.5 200q-25 73 -25 157q0 67 16 142zM396 663h458 q1 16 1 31q0 98 -40 153q-46 63 -134 63q-89 0 -164.5 -64.5t-120.5 -182.5z" />
<glyph unicode="f" horiz-adv-x="834" d="M109 880l46 212h209l29 137q27 127 137.5 215t264.5 88q98 0 188 -23l-45 -212q-53 23 -114 23q-147 0 -175 -129l-19 -99h253l-46 -212h-253l-188 -880h-264l187 880h-210z" />
<glyph unicode="g" horiz-adv-x="1315" d="M-23 -244l184 151q77 -97 249 -97q138 0 245 81t134 208l18 83q-56 -76 -155 -125t-200 -49q-95 0 -174.5 39.5t-130 112t-68.5 174.5q-7 41 -7 85q0 67 16 142q26 122 87.5 227t143 176t177.5 111t191 40q107 0 187.5 -54.5t99.5 -129.5l35 161h258l-213 -993 q-45 -213 -233.5 -357t-444.5 -144q-146 0 -245 44.5t-154 113.5zM364 561q-12 -55 -12 -102q0 -81 35 -137q55 -90 168 -90q111 0 205.5 89.5t126.5 239.5q11 52 11 98q0 82 -36 141q-56 92 -166 92q-111 0 -206 -92t-126 -239z" />
<glyph unicode="h" d="M52 0l323 1517h265l-124 -581q55 80 153 129.5t218 49.5q181 0 267 -117q58 -79 58 -194q0 -56 -14 -121l-145 -683h-266l137 645q10 47 10 85q0 62 -26 100q-42 62 -143 62q-117 0 -206 -87.5t-125 -258.5l-117 -546h-265z" />
<glyph unicode="i" horiz-adv-x="599" d="M52 0l232 1092h265l-232 -1092h-265zM316 1259l54 258h273l-54 -258h-273z" />
<glyph unicode="j" horiz-adv-x="621" d="M-270 -372l45 213q53 -23 114 -23q147 0 175 129l242 1145h266l-252 -1183q-27 -128 -137.5 -215.5t-264.5 -87.5q-114 0 -188 22zM338 1259l55 258h273l-55 -258h-273z" />
<glyph unicode="k" horiz-adv-x="1190" d="M52 0l323 1517h265l-192 -907l534 482h326l-606 -531l407 -561h-337l-347 508l-108 -508h-265z" />
<glyph unicode="l" horiz-adv-x="599" d="M52 0l323 1517h265l-323 -1517h-265z" />
<glyph unicode="m" horiz-adv-x="1926" d="M52 0l232 1092h258l-37 -171q123 194 342 194q126 0 195 -63t90 -158q152 221 377 221q169 0 246 -117q50 -76 50 -184q0 -59 -15 -127l-146 -687h-265l137 645q12 56 12 99q0 148 -141 148q-87 0 -170.5 -90t-116.5 -245l-120 -557h-264l137 645q12 55 12 97 q0 150 -143 150q-87 0 -170 -90t-117 -245l-118 -557h-265z" />
<glyph unicode="n" d="M52 0l232 1092h258l-37 -168q56 86 157.5 138.5t224.5 52.5q181 0 267 -117q58 -79 58 -194q0 -56 -14 -121l-145 -683h-266l137 645q10 47 10 85q0 62 -26 100q-42 62 -143 62q-117 0 -206 -87.5t-125 -258.5l-117 -546h-265z" />
<glyph unicode="o" horiz-adv-x="1228" d="M76 310q-7 42 -8 88q0 69 17 148q54 257 237 413t414 156q113 0 202.5 -40t144 -114t73.5 -179q8 -42 7 -89q0 -69 -16 -147q-55 -257 -238 -413t-414 -156q-113 0 -202.5 40t-144 114t-72.5 179zM361 546q-13 -64 -14 -116q0 -80 32 -136q52 -92 163 -92t202 91.5 t125 252.5q14 66 14 120q0 79 -30 134q-51 92 -164 92q-111 0 -202.5 -92.5t-125.5 -253.5z" />
<glyph unicode="p" horiz-adv-x="1315" d="M-29 -379l313 1471h258l-35 -161q50 78 157.5 131t207.5 53q96 0 174.5 -40t129.5 -114t68 -179q6 -40 6 -83q0 -71 -17 -153q-54 -253 -229.5 -411t-372.5 -158q-93 0 -177 47.5t-107 119.5l-110 -523h-266zM434 546q-13 -61 -13 -112q0 -83 34 -140q55 -92 167 -92 t206.5 92t128.5 252q13 62 13 114q0 83 -33 140q-54 92 -169 92q-112 0 -206.5 -93t-127.5 -253z" />
<glyph unicode="q" horiz-adv-x="1315" d="M74 310q-6 40 -6 83q0 71 17 153q27 127 89 235.5t144 180.5t177.5 112.5t191.5 40.5q101 0 185.5 -53t101.5 -131l35 161h258l-314 -1471h-266l112 523q-54 -72 -158 -119.5t-197 -47.5q-95 0 -173.5 40t-129 114t-67.5 179zM361 546q-13 -61 -13 -112q0 -83 34 -140 q55 -92 167 -92t206.5 92t128.5 252q13 61 13 112q0 84 -34 141q-55 93 -167 93q-115 0 -208 -92.5t-127 -253.5z" />
<glyph unicode="r" horiz-adv-x="834" d="M52 0l232 1092h258l-35 -167q127 190 415 190l-51 -243q-39 4 -74 4q-54 0 -96 -10q-101 -20 -170.5 -103t-98.5 -220l-115 -543h-265z" />
<glyph unicode="s" horiz-adv-x="945" d="M-33 120l188 155q30 -39 85 -66t124 -27q83 0 136 33t64 84q3 12 3 23q0 28 -17 50q-23 31 -65 48.5t-94.5 38t-103.5 42t-90 60.5t-55 94q-8 27 -8 61q0 36 9 80q13 61 52.5 119t99.5 104.5t145 75t180 28.5q222 0 342 -151l-187 -154q-75 92 -194 92q-71 0 -119.5 -35 t-57.5 -79q-2 -8 -2 -16q0 -25 18 -45q24 -26 67 -42t95.5 -36.5t102.5 -44t89 -64.5q38 -41 54 -98q7 -27 8 -61q0 -38 -9 -84q-14 -65 -53.5 -123.5t-101.5 -106.5t-153.5 -76.5t-199.5 -28.5q-114 0 -206.5 42t-145.5 108z" />
<glyph unicode="t" horiz-adv-x="834" d="M109 880l46 212h209l65 311h266l-65 -311h253l-46 -212h-253l-118 -554q-4 -20 -4 -37q0 -37 19 -59q28 -32 105 -33q60 0 122 23l-44 -212q-87 -23 -198 -23q-154 -1 -227 87q-53 64 -53 150q0 32 7 66l126 592h-210z" />
<glyph unicode="u" d="M138 410l146 682h265l-136 -644q-10 -47 -10 -85q0 -61 26 -99q42 -62 143 -62q117 0 205.5 86.5t126.5 257.5l115 546h266l-232 -1092h-258l36 168q-56 -86 -157.5 -138.5t-224.5 -52.5q-181 -1 -267 117q-58 79 -58 195q0 56 14 121z" />
<glyph unicode="v" horiz-adv-x="1155" d="M117 1092h293l106 -814l466 814h291l-668 -1092h-291z" />
<glyph unicode="w" horiz-adv-x="1664" d="M132 1092h279l18 -827l387 827h267l35 -827l369 827h279l-548 -1092h-300l-34 792l-368 -792h-301z" />
<glyph unicode="x" horiz-adv-x="1122" d="M-85 0l495 563l-246 529h320l124 -324l264 324h320l-470 -529l255 -563h-311l-143 361l-297 -361h-311z" />
<glyph unicode="y" horiz-adv-x="1155" d="M-65 -372l45 213q53 -23 114 -23q105 0 144 61q9 3 37 47.5t39 65.5l-197 1100h293l106 -814l466 814h291l-797 -1298q-19 -31 -47.5 -61t-71.5 -60t-104 -48.5t-130 -18.5q-114 0 -188 22z" />
<glyph unicode="z" horiz-adv-x="963" d="M-39 0l41 194l623 686h-463l46 212h781l-42 -197l-622 -678h493l-46 -217h-811z" />
<glyph unicode="{" horiz-adv-x="811" d="M102 645l48 227h53q68 0 127.5 49.5t74.5 117.5l70 326q22 100 108 171.5t186 71.5h209l-42 -197h-103q-41 0 -76 -29t-44 -70l-65 -311q-20 -93 -97 -161.5t-167 -80.5q85 -11 132.5 -80.5t28.5 -162.5l-67 -311q-8 -41 14 -70t63 -29h103l-41 -197h-209 q-100 0 -156.5 71.5t-34.5 171.5l68 326q15 70 -22.5 118.5t-107.5 48.5h-53z" />
<glyph unicode="|" horiz-adv-x="667" d="M50 -379l404 1896h174l-403 -1896h-175z" />
<glyph unicode="}" horiz-adv-x="811" d="M-74 -91l41 197h103q41 0 76.5 29t43.5 70l66 311q19 93 96.5 162t167.5 81q-85 11 -132.5 80t-27.5 162l65 311q9 41 -14 70t-64 29h-103l43 197h209q100 0 156.5 -71.5t34.5 -171.5l-70 -326q-15 -68 24.5 -117.5t107.5 -49.5h54l-49 -227h-53q-70 0 -129 -48.5 t-74 -118.5l-69 -326q-22 -100 -108 -171.5t-186 -71.5h-209z" />
<glyph unicode="~" horiz-adv-x="882" d="M70 640l104 87q86 72 192 72q105 0 162 -72l21 -28q18 -22 50 -22q36 0 65 24l101 83l95 -118l-105 -86q-87 -73 -191 -73t-162 73l-21 27q-15 21 -50 21q-38 0 -66 -23l-100 -83z" />
<glyph unicode="&#xa1;" horiz-adv-x="629" d="M36 0l298 1092h197l-168 -1092h-327zM319 1241l59 276h288l-59 -276h-288z" />
<glyph unicode="&#xa2;" horiz-adv-x="1039" d="M118 759q47 222 207 374.5t364 184.5l42 199h126l-41 -191q188 -8 314 -141l-197 -163q-62 76 -164 81l-147 -690q107 8 199 82l127 -163q-181 -133 -373 -142l-41 -190h-126l43 197q-190 34 -285.5 187t-47.5 375zM394 759q-24 -112 6 -196.5t102 -118.5l134 629 q-86 -35 -152 -118.5t-90 -195.5z" />
<glyph unicode="&#xa3;" horiz-adv-x="1196" d="M-39 0l50 240h151l87 405h-152l27 129h152l58 268q22 102 78.5 194t135 159t179.5 106t206 39q226 0 364 -175l-232 -191q-76 96 -190 96q-91 0 -167.5 -67.5t-96.5 -160.5l-57 -268h235l-27 -129h-236l-86 -405h620l-50 -240h-1049z" />
<glyph unicode="&#xa5;" horiz-adv-x="1306" d="M124 420l28 129h358l22 106h-358l28 129h279l-316 733h361l213 -573l456 573h360l-627 -733h278l-27 -129h-358l-23 -106h358l-27 -129h-358l-88 -420h-290l89 420h-358z" />
<glyph unicode="&#xa6;" horiz-adv-x="667" d="M115 -76l154 721h174l-153 -721h-175zM317 872l153 721h175l-153 -721h-175z" />
<glyph unicode="&#xa7;" horiz-adv-x="1002" d="M8 120l186 155q76 -93 194 -93q72 0 120.5 35t57.5 79q7 35 -16.5 61t-66.5 42t-95.5 36.5t-102.5 44t-89 64.5t-54.5 98t1.5 145q29 133 148 225q-53 81 -26 202q27 129 159 227.5t319 98.5q223 0 342 -150l-187 -155q-75 92 -194 92q-72 0 -120.5 -35t-57.5 -78 q-7 -35 16.5 -61t66.5 -42.5t95.5 -37t103 -44t89.5 -64.5t54.5 -98t-1.5 -145q-29 -131 -149 -224q53 -81 26 -202q-27 -129 -159 -227.5t-319 -98.5q-222 0 -341 150zM405 793q-9 -42 17.5 -74t55 -45t97.5 -38q7 -3 11 -4.5t10 -3.5t11 -4q66 31 80 92q7 32 -2 56.5 t-41 44.5t-54 29.5t-75 28.5q-20 7 -30 11q-65 -31 -80 -93z" />
<glyph unicode="&#xa8;" horiz-adv-x="629" d="M161 1262l53 252h232l-55 -252h-230zM543 1262l55 252h230l-53 -252h-232z" />
<glyph unicode="&#xa9;" horiz-adv-x="1774" d="M158.5 557q-8.5 97 15.5 202q44 206 183 380.5t335.5 276t402.5 101.5t359 -101.5t217 -276t20 -380.5q-32 -154 -122 -294.5t-213 -242.5t-276.5 -162t-307.5 -60q-103 0 -196 27t-165 76.5t-128 119t-86 153.5t-38.5 181zM297.5 512.5q27.5 -115.5 93 -201.5 t172.5 -135.5t236 -49.5t256.5 50t230.5 135t178.5 202t102.5 246q36 172 -17.5 317.5t-181.5 230t-300 84.5t-336 -84.5t-280 -230t-152 -317.5q-30 -131 -2.5 -246.5zM499 759q46 216 196.5 348t352.5 132q180 0 267 -112l-126 -103q-54 71 -167 71q-120 0 -216 -90.5 t-128 -245.5q-34 -155 23.5 -246t176.5 -91q112 0 199 71l82 -103q-136 -112 -316 -112q-200 0 -295 132.5t-49 348.5z" />
<glyph unicode="&#xaa;" horiz-adv-x="872" d="M174 966q24 106 128.5 176t280.5 70h118q15 59 9 64q6 48 -31.5 81.5t-100.5 33.5q-97 0 -181 -64l-83 108q146 103 314 103q152 0 222.5 -79.5t44.5 -202.5l-106 -497h-179l26 115q-90 -131 -258 -131q-107 0 -165.5 65.5t-38.5 157.5zM364 980q-9 -42 15.5 -70.5 t81.5 -28.5q75 0 133.5 52t76.5 137l6 22h-128q-78 0 -126.5 -33t-58.5 -79z" />
<glyph unicode="&#xab;" horiz-adv-x="1074" d="M127 607l304 425h264l-304 -425l123 -425h-264zM534 607l303 425h264l-303 -425l123 -425h-264z" />
<glyph unicode="&#xad;" horiz-adv-x="705" d="M76 473l41 190h523l-41 -190h-523z" />
<glyph unicode="&#xae;" horiz-adv-x="1774" d="M158.5 557q-8.5 97 15.5 202q44 206 183 380.5t335.5 276t402.5 101.5t359 -101.5t217 -276t20 -380.5q-32 -154 -122 -294.5t-213 -242.5t-276.5 -162t-307.5 -60q-103 0 -196 27t-165 76.5t-128 119t-86 153.5t-38.5 181zM297.5 512.5q27.5 -115.5 93 -201.5 t172.5 -135.5t236 -49.5t256.5 50t230.5 135t178.5 202t102.5 246q36 172 -17.5 317.5t-181.5 230t-300 84.5t-336 -84.5t-280 -230t-152 -317.5q-30 -131 -2.5 -246.5zM520 291l199 935h340q143 0 205 -71t39 -178q-16 -76 -74.5 -140t-136.5 -85q103 -16 103 -142l-1 -319 h-184l5 290q3 100 -99 100h-141l-83 -390h-172zM806 825h135q68 0 117.5 36.5t62.5 95.5q12 56 -14 90.5t-94 34.5h-153z" />
<glyph unicode="&#xaf;" horiz-adv-x="682" d="M259 1320l38 177h493l-38 -177h-493z" />
<glyph unicode="&#xb0;" horiz-adv-x="773" d="M221 1229q27 128 138.5 219.5t239.5 91.5t199.5 -91.5t44.5 -219.5t-137.5 -219.5t-238.5 -91.5q-129 0 -201 91t-45 220zM388 1229q-13 -59 21 -101.5t93 -42.5t110.5 42.5t64.5 101.5t-20.5 101.5t-93.5 42.5q-59 0 -110.5 -42.5t-64.5 -101.5z" />
<glyph unicode="&#xb1;" horiz-adv-x="1152" d="M-5 124l40 192h986l-39 -192h-987zM133 777l41 189h398l85 399h190l-85 -399h399l-41 -189h-399l-84 -398h-189l83 398h-398z" />
<glyph unicode="&#xb2;" horiz-adv-x="814" d="M61 505l27 129q303 231 427.5 357.5t148.5 243.5q13 59 -19.5 100.5t-102.5 41.5q-96 0 -195 -81l-91 113q147 125 328 125q150 0 223 -83t46 -213q-28 -128 -149.5 -266t-343.5 -308h403l-35 -159h-667z" />
<glyph unicode="&#xb3;" horiz-adv-x="848" d="M91 611l140 116q62 -82 165 -82q82 0 142.5 43t74.5 105q13 63 -29 107.5t-124 44.5h-94l34 159h93q83 0 136.5 38.5t65.5 98.5q13 58 -24.5 97t-113.5 39q-95 0 -194 -83l-90 115q147 125 317 125q152 0 233 -81.5t55 -208.5q-18 -79 -78 -138.5t-120 -79.5 q64 -21 101.5 -90t22.5 -147q-27 -128 -151 -215t-286 -87q-193 0 -276 124z" />
<glyph unicode="&#xb4;" horiz-adv-x="682" d="M256 1198l220 349h302l-371 -349h-151z" />
<glyph unicode="&#xb5;" d="M-29 -379l313 1471h265l-136 -644q-26 -123 16 -184.5t143 -61.5q117 0 205.5 86.5t126.5 257.5l115 546h266l-232 -1092h-258l36 168q-56 -86 -157.5 -138.5t-224.5 -52.5q-85 0 -127 44l-85 -400h-266z" />
<glyph unicode="&#xb6;" horiz-adv-x="1304" d="M179 1100q37 172 186 294.5t321 122.5h667l-403 -1896h-263l358 1684h-144l-358 -1684h-261l226 1062q-113 0 -197 56t-120 152t-12 209z" />
<glyph unicode="&#xb7;" horiz-adv-x="591" d="M137 467l57 278h288l-57 -278h-288z" />
<glyph unicode="&#xb8;" horiz-adv-x="713" d="M-61 -314l93 77q36 -44 98 -44q42 0 69 17.5t33 43.5q6 29 -27 47t-109 18l109 155h142l-51 -73q57 -6 91.5 -44.5t22.5 -96.5q-16 -69 -96.5 -121t-193.5 -52q-110 0 -181 73z" />
<glyph unicode="&#xb9;" horiz-adv-x="678" d="M215 1238l34 156q63 8 140.5 46t124.5 77h158l-215 -1012h-179l174 824q-34 -28 -102 -55t-135 -36z" />
<glyph unicode="&#xba;" horiz-adv-x="888" d="M202 1138q38 179 165 286.5t288 107.5t241.5 -107.5t42.5 -286.5t-164.5 -287t-287.5 -108t-242 108t-43 287zM394 1138q-23 -112 13 -176t113 -64t140.5 64t87.5 176t-11.5 175.5t-114.5 63.5q-77 0 -140.5 -63.5t-87.5 -175.5z" />
<glyph unicode="&#xbb;" horiz-adv-x="1074" d="M2 182l301 425l-121 425h264l121 -425l-302 -425h-263zM408 182l302 425l-121 425h264l121 -425l-302 -425h-264z" />
<glyph unicode="&#xbc;" horiz-adv-x="1720" d="M85 -76l1341 1669h187l-1341 -1669h-187zM215 1238l34 156q63 8 140.5 46t124.5 77h158l-215 -1012h-179l174 824q-34 -28 -102 -55t-135 -36zM810 228l35 165l572 619h187l-132 -625h145l-35 -159h-144l-48 -228h-178l49 228h-451zM1022 387h272l83 390z" />
<glyph unicode="&#xbd;" horiz-adv-x="1817" d="M85 -76l1341 1669h187l-1341 -1669h-187zM215 1238l34 156q63 8 140.5 46t124.5 77h158l-215 -1012h-179l174 824q-34 -28 -102 -55t-135 -36zM963 0l28 129q303 231 428 357.5t150 243.5q12 60 -21.5 101t-103.5 41q-94 0 -194 -82l-91 114q151 125 328 125 q150 0 222.5 -83t45.5 -213q-26 -127 -148 -265t-345 -309h404l-34 -159h-669z" />
<glyph unicode="&#xbe;" horiz-adv-x="1905" d="M91 611l140 116q62 -82 165 -82q82 0 142.5 43t74.5 105q13 63 -29 107.5t-124 44.5h-94l34 159h93q83 0 136.5 38.5t65.5 98.5q13 58 -24.5 97t-113.5 39q-95 0 -194 -83l-90 115q147 125 317 125q152 0 233 -81.5t55 -208.5q-18 -79 -78 -138.5t-120 -79.5 q64 -21 101.5 -90t22.5 -147q-27 -128 -151 -215t-286 -87q-193 0 -276 124zM270 -76l1341 1669h185l-1341 -1669h-185zM995 228l35 165l572 619h187l-134 -625h146l-34 -159h-145l-49 -228h-176l49 228h-451zM1208 387h271l84 390z" />
<glyph unicode="&#xbf;" horiz-adv-x="1080" d="M55 407q22 105 77 181t143 145q7 11 63 51.5t62 48.5q93 73 135.5 125.5t59.5 133.5h258q-42 -199 -198 -330q-6 -11 -60.5 -52t-60.5 -49q-54 -46 -81.5 -73t-57 -73.5t-40.5 -100.5q-16 -82 32 -144t141 -62q143 0 290 124l136 -173q-114 -92 -231.5 -139t-255.5 -47 q-150 0 -253.5 59.5t-143.5 158t-15 216.5zM611 1241l60 276h288l-59 -276h-289z" />
<glyph unicode="&#xc0;" horiz-adv-x="1441" d="M-115 0l887 1517h311l243 -1517h-307l-48 349h-584l-194 -349h-308zM519 587h422l-82 605zM740 1954h302l72 -349h-151z" />
<glyph unicode="&#xc1;" horiz-adv-x="1441" d="M-115 0l887 1517h311l243 -1517h-307l-48 349h-584l-194 -349h-308zM519 587h422l-82 605zM772 1590l220 349h302l-373 -349h-149z" />
<glyph unicode="&#xc2;" horiz-adv-x="1441" d="M-115 0l887 1517h311l243 -1517h-307l-48 349h-584l-194 -349h-308zM519 587h422l-82 605zM640 1590l261 349h232l112 -349h-194l-66 197l-151 -197h-194z" />
<glyph unicode="&#xc3;" horiz-adv-x="1441" d="M-115 0l887 1517h311l243 -1517h-307l-48 349h-584l-194 -349h-308zM519 587h422l-82 605zM573 1625q22 105 111 178.5t194 73.5q104 0 161 -73l21 -26q18 -23 52 -23q33 0 62.5 24.5t36.5 57.5h170q-22 -105 -111 -178.5t-194 -73.5q-103 0 -161 73l-21 26 q-18 23 -52 23t-63 -24.5t-36 -57.5h-170z" />
<glyph unicode="&#xc4;" horiz-adv-x="1441" d="M-115 0l887 1517h311l243 -1517h-307l-48 349h-584l-194 -349h-308zM519 587h422l-82 605zM646 1638l53 251h232l-53 -251h-232zM1030 1638l53 251h231l-53 -251h-231z" />
<glyph unicode="&#xc5;" horiz-adv-x="1441" d="M-115 0l887 1517h311l243 -1517h-307l-48 349h-584l-194 -349h-308zM519 587h422l-82 605zM801 1745q16 72 78 123t134 51t112.5 -51t24.5 -123q-15 -72 -77 -123.5t-134 -51.5t-112.5 51.5t-25.5 123.5zM869 1745q-9 -44 16 -75.5t69 -31.5q43 0 81 31.5t47 75.5 q10 43 -15 74.5t-69 31.5q-43 0 -80.5 -31t-48.5 -75z" />
<glyph unicode="&#xc6;" horiz-adv-x="1794" d="M-267 0l1226 1517h913l-50 -240h-536l-83 -394h519l-50 -240h-521l-86 -403h551l-50 -240h-839l74 349h-464l-270 -349h-334zM519 587h332l124 584z" />
<glyph unicode="&#xc7;" horiz-adv-x="1331" d="M134.5 372q-41.5 166 2.5 387q75 352 321 566.5t574 214.5q292 0 436 -182l-209 -173q-91 117 -271 117q-190 0 -343.5 -146.5t-207.5 -396.5q-35 -172 -4.5 -292.5t115.5 -186t209 -65.5q180 0 322 117l135 -173q-198 -164 -463 -180l-36 -52q57 -6 91 -44.5t22 -96.5 q-14 -69 -95 -121t-194 -52q-112 0 -179 73l91 77q36 -44 100 -44q42 0 68.5 17.5t31.5 43.5q6 29 -27 47t-110 18l97 137q-188 19 -311.5 121.5t-165 268.5z" />
<glyph unicode="&#xc8;" horiz-adv-x="1134" d="M67 0l323 1517h822l-50 -240h-535l-84 -394h519l-50 -240h-520l-87 -403h551l-50 -240h-839zM593 1939h302l71 -349h-148z" />
<glyph unicode="&#xc9;" horiz-adv-x="1134" d="M67 0l323 1517h822l-50 -240h-535l-84 -394h519l-50 -240h-520l-87 -403h551l-50 -240h-839zM646 1590l220 349h302l-372 -349h-150z" />
<glyph unicode="&#xca;" horiz-adv-x="1134" d="M67 0l323 1517h822l-50 -240h-535l-84 -394h519l-50 -240h-520l-87 -403h551l-50 -240h-839zM517 1590l261 349h232l113 -349h-195l-66 197l-151 -197h-194z" />
<glyph unicode="&#xcb;" horiz-adv-x="1134" d="M67 0l323 1517h822l-50 -240h-535l-84 -394h519l-50 -240h-520l-87 -403h551l-50 -240h-839zM532 1638l54 251h230l-53 -251h-231zM915 1638l53 251h232l-53 -251h-232z" />
<glyph unicode="&#xcc;" horiz-adv-x="652" d="M67 0l323 1517h288l-323 -1517h-288zM338 1939h302l71 -349h-148z" />
<glyph unicode="&#xcd;" horiz-adv-x="652" d="M67 0l323 1517h288l-323 -1517h-288zM385 1590l220 349h302l-371 -349h-151z" />
<glyph unicode="&#xce;" horiz-adv-x="652" d="M67 0l323 1517h288l-323 -1517h-288zM246 1590l261 349h232l112 -349h-194l-67 197l-150 -197h-194z" />
<glyph unicode="&#xcf;" horiz-adv-x="652" d="M67 0l323 1517h288l-323 -1517h-288zM252 1638l53 251h232l-53 -251h-232zM636 1638l53 251h230l-53 -251h-230z" />
<glyph unicode="&#xd0;" horiz-adv-x="1506" d="M44 663l41 191h164l141 663h450q169 0 300.5 -48t217.5 -143t113.5 -237t-10.5 -330q-39 -183 -129.5 -329t-216.5 -239t-277.5 -142t-318.5 -49h-452l141 663h-164zM405 240h156q218 0 382.5 135.5t217.5 383.5t-53.5 383t-324.5 135h-156l-90 -423h162l-41 -191h-162z " />
<glyph unicode="&#xd1;" horiz-adv-x="1539" d="M67 0l323 1517h359l301 -1153l246 1153h270l-324 -1517h-361l-300 1153l-244 -1153h-270zM619 1625q22 105 111 178.5t194 73.5q104 0 161 -73l21 -26q18 -23 51 -23t62.5 24.5t36.5 57.5h170q-22 -105 -111 -178.5t-194 -73.5q-103 0 -161 73l-21 26q-18 23 -52 23 t-62.5 -24.5t-35.5 -57.5h-170z" />
<glyph unicode="&#xd2;" horiz-adv-x="1577" d="M137 759q75 351 313.5 566t550.5 215q205 0 342.5 -96.5t187.5 -274.5t1 -410q-75 -351 -313.5 -566.5t-549.5 -215.5q-205 0 -343 97t-188 275t-1 410zM437 759q-54 -251 26.5 -397.5t255.5 -146.5q170 0 315.5 147.5t198.5 396.5t-29.5 396t-253.5 147 q-175 0 -317 -146t-196 -397zM755 1939h302l72 -349h-151z" />
<glyph unicode="&#xd3;" horiz-adv-x="1577" d="M137 759q75 351 313.5 566t550.5 215q205 0 342.5 -96.5t187.5 -274.5t1 -410q-75 -351 -313.5 -566.5t-549.5 -215.5q-205 0 -343 97t-188 275t-1 410zM437 759q-54 -251 26.5 -397.5t255.5 -146.5q170 0 315.5 147.5t198.5 396.5t-29.5 396t-253.5 147 q-175 0 -317 -146t-196 -397zM894 1590l220 349h301l-373 -349h-148z" />
<glyph unicode="&#xd4;" horiz-adv-x="1577" d="M137 759q75 351 313.5 566t550.5 215q205 0 342.5 -96.5t187.5 -274.5t1 -410q-75 -351 -313.5 -566.5t-549.5 -215.5q-205 0 -343 97t-188 275t-1 410zM437 759q-54 -251 26.5 -397.5t255.5 -146.5q170 0 315.5 147.5t198.5 396.5t-29.5 396t-253.5 147 q-175 0 -317 -146t-196 -397zM708 1590l261 349h232l113 -349h-194l-67 197l-150 -197h-195z" />
<glyph unicode="&#xd5;" horiz-adv-x="1577" d="M137 759q75 351 313.5 566t550.5 215q205 0 342.5 -96.5t187.5 -274.5t1 -410q-75 -351 -313.5 -566.5t-549.5 -215.5q-205 0 -343 97t-188 275t-1 410zM437 759q-54 -251 26.5 -397.5t255.5 -146.5q170 0 315.5 147.5t198.5 396.5t-29.5 396t-253.5 147 q-175 0 -317 -146t-196 -397zM637 1625q22 105 111 178.5t194 73.5q104 0 161 -73l21 -26q18 -23 52 -23q33 0 62 24.5t36 57.5h170q-22 -105 -111 -178.5t-194 -73.5q-103 0 -161 73l-21 26q-18 23 -51 23q-34 0 -63 -24.5t-36 -57.5h-170z" />
<glyph unicode="&#xd6;" horiz-adv-x="1577" d="M137 759q75 351 313.5 566t550.5 215q205 0 342.5 -96.5t187.5 -274.5t1 -410q-75 -351 -313.5 -566.5t-549.5 -215.5q-205 0 -343 97t-188 275t-1 410zM437 759q-54 -251 26.5 -397.5t255.5 -146.5q170 0 315.5 147.5t198.5 396.5t-29.5 396t-253.5 147 q-175 0 -317 -146t-196 -397zM715 1638l53 251h232l-53 -251h-232zM1098 1638l53 251h231l-53 -251h-231z" />
<glyph unicode="&#xd7;" horiz-adv-x="1152" d="M102 426l383 317l-250 317l164 134l249 -317l384 317l104 -134l-382 -317l249 -317l-163 -133l-250 317l-384 -317z" />
<glyph unicode="&#xd8;" horiz-adv-x="1577" d="M2 -76l219 252q-78 104 -100 251.5t16 331.5q75 351 313.5 566t550.5 215q199 0 336 -93l127 146h205l-222 -252q79 -105 101 -251t-16 -331q-75 -351 -313.5 -566.5t-549.5 -215.5q-201 0 -335 93l-128 -146h-204zM437 759q-42 -198 1 -336l707 806q-81 73 -195 73 q-175 0 -317 -146t-196 -397zM523 287q77 -72 196 -72q170 0 315.5 147.5t198.5 396.5q42 191 -3 333z" />
<glyph unicode="&#xd9;" horiz-adv-x="1509" d="M173 498l217 1019h288l-217 -1019q-30 -137 34 -213t189 -76q124 0 220 75.5t126 213.5l217 1019h288l-217 -1019q-36 -168 -135.5 -288.5t-240 -180t-309.5 -59.5q-258 0 -385.5 138.5t-74.5 389.5zM745 1939h302l71 -349h-149z" />
<glyph unicode="&#xda;" horiz-adv-x="1509" d="M173 498l217 1019h288l-217 -1019q-30 -137 34 -213t189 -76q124 0 220 75.5t126 213.5l217 1019h288l-217 -1019q-36 -168 -135.5 -288.5t-240 -180t-309.5 -59.5q-258 0 -385.5 138.5t-74.5 389.5zM840 1590l220 349h302l-373 -349h-149z" />
<glyph unicode="&#xdb;" horiz-adv-x="1509" d="M173 498l217 1019h288l-217 -1019q-30 -137 34 -213t189 -76q124 0 220 75.5t126 213.5l217 1019h288l-217 -1019q-36 -168 -135.5 -288.5t-240 -180t-309.5 -59.5q-258 0 -385.5 138.5t-74.5 389.5zM675 1590l261 349h232l112 -349h-194l-67 197l-150 -197h-194z" />
<glyph unicode="&#xdc;" horiz-adv-x="1509" d="M173 498l217 1019h288l-217 -1019q-30 -137 34 -213t189 -76q124 0 220 75.5t126 213.5l217 1019h288l-217 -1019q-36 -168 -135.5 -288.5t-240 -180t-309.5 -59.5q-258 0 -385.5 138.5t-74.5 389.5zM681 1638l53 251h231l-53 -251h-231zM1063 1638l54 251h232l-53 -251 h-233z" />
<glyph unicode="&#xdd;" horiz-adv-x="1260" d="M143 1517h361l212 -573l457 573h359l-733 -860l-139 -657h-288l139 657zM692 1590l220 349h302l-374 -349h-148z" />
<glyph unicode="&#xde;" horiz-adv-x="1271" d="M67 0l323 1517h288l-67 -309h251q223 0 336.5 -129t72.5 -320q-42 -195 -209 -322.5t-391 -127.5h-251l-65 -309h-288zM472 549h223q111 0 185.5 58t94.5 150q19 92 -31 151.5t-160 59.5h-223z" />
<glyph unicode="&#xdf;" horiz-adv-x="1287" d="M52 0l233 1101q41 191 196 315t379 124q217 0 325 -114.5t71 -289.5q-25 -118 -105 -202.5t-180 -129.5q111 -42 164 -137.5t27 -215.5q-45 -210 -213.5 -342t-412.5 -132q-71 0 -129 14l47 223q46 -17 106 -17q121 0 207.5 72t109.5 177q22 105 -32.5 176t-170.5 71 h-119l46 214h118q96 0 166.5 60t88.5 147q20 87 -27 146.5t-137 59.5t-165 -63.5t-93 -150.5l-235 -1106h-265z" />
<glyph unicode="&#xe0;" horiz-adv-x="1213" d="M47 299q32 152 182.5 252.5t404.5 100.5h170q19 88 12 94q9 69 -44 116.5t-144 47.5q-140 0 -259 -92l-122 154q211 151 452 151q217 0 320 -114.5t64 -290.5l-152 -718h-257l34 167q-59 -90 -154 -140t-216 -50q-154 0 -237 94t-54 228zM320 319q-12 -60 22.5 -101 t115.5 -41q109 0 193.5 74.5t110.5 196.5l6 34h-182q-111 0 -181.5 -48.5t-84.5 -114.5zM507 1547h302l71 -349h-150z" />
<glyph unicode="&#xe1;" horiz-adv-x="1213" d="M47 299q32 152 182.5 252.5t404.5 100.5h170q19 88 12 94q9 69 -44 116.5t-144 47.5q-140 0 -259 -92l-122 154q211 151 452 151q217 0 320 -114.5t64 -290.5l-152 -718h-257l34 167q-59 -90 -154 -140t-216 -50q-154 0 -237 94t-54 228zM320 319q-12 -60 22.5 -101 t115.5 -41q109 0 193.5 74.5t110.5 196.5l6 34h-182q-111 0 -181.5 -48.5t-84.5 -114.5zM567 1198l220 349h302l-373 -349h-149z" />
<glyph unicode="&#xe2;" horiz-adv-x="1213" d="M47 299q32 152 182.5 252.5t404.5 100.5h170q19 88 12 94q9 69 -44 116.5t-144 47.5q-140 0 -259 -92l-122 154q211 151 452 151q217 0 320 -114.5t64 -290.5l-152 -718h-257l34 167q-59 -90 -154 -140t-216 -50q-154 0 -237 94t-54 228zM320 319q-12 -60 22.5 -101 t115.5 -41q109 0 193.5 74.5t110.5 196.5l6 34h-182q-111 0 -181.5 -48.5t-84.5 -114.5zM417 1198l261 349h232l112 -349h-194l-66 198l-151 -198h-194z" />
<glyph unicode="&#xe3;" horiz-adv-x="1213" d="M47 299q32 152 182.5 252.5t404.5 100.5h170q19 88 12 94q9 69 -44 116.5t-144 47.5q-140 0 -259 -92l-122 154q211 151 452 151q217 0 320 -114.5t64 -290.5l-152 -718h-257l34 167q-59 -90 -154 -140t-216 -50q-154 0 -237 94t-54 228zM320 319q-12 -60 22.5 -101 t115.5 -41q109 0 193.5 74.5t110.5 196.5l6 34h-182q-111 0 -181.5 -48.5t-84.5 -114.5zM361 1286q22 105 111 178.5t194 73.5q104 0 161 -73l21 -25q18 -23 52 -23t63 24t37 58h170q-22 -105 -112 -178.5t-195 -73.5q-103 0 -161 73l-21 26q-18 22 -51 22q-34 0 -63 -24.5 t-36 -57.5h-170z" />
<glyph unicode="&#xe4;" horiz-adv-x="1213" d="M47 299q32 152 182.5 252.5t404.5 100.5h170q19 88 12 94q9 69 -44 116.5t-144 47.5q-140 0 -259 -92l-122 154q211 151 452 151q217 0 320 -114.5t64 -290.5l-152 -718h-257l34 167q-59 -90 -154 -140t-216 -50q-154 0 -237 94t-54 228zM320 319q-12 -60 22.5 -101 t115.5 -41q109 0 193.5 74.5t110.5 196.5l6 34h-182q-111 0 -181.5 -48.5t-84.5 -114.5zM426 1262l53 252h232l-54 -252h-231zM809 1262l54 252h231l-53 -252h-232z" />
<glyph unicode="&#xe5;" horiz-adv-x="1213" d="M47 299q32 152 182.5 252.5t404.5 100.5h170q19 88 12 94q9 69 -44 116.5t-144 47.5q-140 0 -259 -92l-122 154q211 151 452 151q217 0 320 -114.5t64 -290.5l-152 -718h-257l34 167q-59 -90 -154 -140t-216 -50q-154 0 -237 94t-54 228zM320 319q-12 -60 22.5 -101 t115.5 -41q109 0 193.5 74.5t110.5 196.5l6 34h-182q-111 0 -181.5 -48.5t-84.5 -114.5zM576 1381q15 72 77 123t134 51q73 0 113 -50.5t25 -123.5q-16 -73 -77.5 -124t-134.5 -51q-72 0 -112.5 51t-24.5 124zM645 1381q-9 -44 15.5 -75.5t67.5 -31.5t81.5 31.5t47.5 75.5 t-15.5 75t-67.5 31q-44 0 -82 -31t-47 -75z" />
<glyph unicode="&#xe6;" horiz-adv-x="1855" d="M47 300q32 151 182.5 251.5t404.5 100.5h170q19 88 12 94q9 69 -44 116.5t-144 47.5q-140 0 -259 -92l-122 154q209 151 452 151q121 0 207.5 -40t125.5 -112q163 144 376 144q226 0 330.5 -153.5t48.5 -415.5l-15 -73h-734q-10 -132 54.5 -207.5t183.5 -75.5 q133 0 236 85l123 -155q-198 -143 -420 -143q-142 0 -243.5 63.5t-144.5 170.5q-72 -109 -194.5 -171.5t-274.5 -62.5q-168 0 -254 93.5t-57 229.5zM320 319q-12 -60 22.5 -101t115.5 -41q109 0 193.5 74.5t110.5 196.5l6 34h-182q-111 0 -181.5 -48.5t-84.5 -114.5z M1082 663h458q7 121 -39 184t-133 63q-89 0 -165 -64.5t-121 -182.5z" />
<glyph unicode="&#xe7;" horiz-adv-x="1057" d="M85 546q35 166 137 297.5t242 201.5t291 70q206 0 340 -143l-195 -162q-64 82 -181 82q-121 0 -223 -97t-135 -249t28.5 -248t182.5 -96q117 0 215 80l128 -162q-175 -128 -351 -140l-38 -53q57 -6 91.5 -44.5t22.5 -96.5q-14 -68 -95.5 -120.5t-194.5 -52.5 q-112 0 -179 73l91 77q36 -44 101 -44q42 0 68.5 17.5t31.5 43.5q6 29 -27 47t-110 18l99 138q-126 21 -214 95t-123 196.5t-3 271.5z" />
<glyph unicode="&#xe8;" horiz-adv-x="1168" d="M85 546q53 254 231.5 411.5t404.5 157.5t330.5 -153t49.5 -416l-16 -73h-733q-10 -132 54 -207.5t183 -75.5q135 0 238 85l121 -155q-195 -143 -420 -143q-161 0 -274.5 70t-159 200t-9.5 299zM396 663h458q7 121 -39 184t-134 63q-89 0 -164.5 -64.5t-120.5 -182.5z M517 1547h302l72 -349h-149z" />
<glyph unicode="&#xe9;" horiz-adv-x="1168" d="M85 546q53 254 231.5 411.5t404.5 157.5t330.5 -153t49.5 -416l-16 -73h-733q-10 -132 54 -207.5t183 -75.5q135 0 238 85l121 -155q-195 -143 -420 -143q-161 0 -274.5 70t-159 200t-9.5 299zM396 663h458q7 121 -39 184t-134 63q-89 0 -164.5 -64.5t-120.5 -182.5z M590 1198l220 349h302l-373 -349h-149z" />
<glyph unicode="&#xea;" horiz-adv-x="1168" d="M85 546q53 254 231.5 411.5t404.5 157.5t330.5 -153t49.5 -416l-16 -73h-733q-10 -132 54 -207.5t183 -75.5q135 0 238 85l121 -155q-195 -143 -420 -143q-161 0 -274.5 70t-159 200t-9.5 299zM396 663h458q7 121 -39 184t-134 63q-89 0 -164.5 -64.5t-120.5 -182.5z M432 1198l261 349h232l113 -349h-195l-66 198l-150 -198h-195z" />
<glyph unicode="&#xeb;" horiz-adv-x="1168" d="M85 546q53 254 231.5 411.5t404.5 157.5t330.5 -153t49.5 -416l-16 -73h-733q-10 -132 54 -207.5t183 -75.5q135 0 238 85l121 -155q-195 -143 -420 -143q-161 0 -274.5 70t-159 200t-9.5 299zM396 663h458q7 121 -39 184t-134 63q-89 0 -164.5 -64.5t-120.5 -182.5z M444 1262l55 252h231l-53 -252h-233zM828 1262l53 252h233l-55 -252h-231z" />
<glyph unicode="&#xec;" horiz-adv-x="599" d="M52 0l232 1092h265l-232 -1092h-265zM206 1547h302l72 -349h-151z" />
<glyph unicode="&#xed;" horiz-adv-x="599" d="M52 0l232 1092h265l-232 -1092h-265zM299 1198l220 349h302l-373 -349h-149z" />
<glyph unicode="&#xee;" horiz-adv-x="599" d="M52 0l232 1092h265l-232 -1092h-265zM137 1198l260 349h233l112 -349h-194l-67 198l-150 -198h-194z" />
<glyph unicode="&#xef;" horiz-adv-x="599" d="M52 0l232 1092h265l-232 -1092h-265zM146 1262l53 252h232l-55 -252h-230zM528 1262l55 252h230l-53 -252h-232z" />
<glyph unicode="&#xf0;" d="M86 476q45 212 224.5 355.5t407.5 143.5q105 0 182.5 -50t99.5 -110q39 196 -5 317l-117 -97l-106 133l119 97q-55 40 -142 40q-162 0 -306 -120l-137 173q94 77 222.5 129.5t267.5 52.5q194 0 314 -93l116 96l106 -135l-108 -88q114 -211 40 -561q-77 -358 -270.5 -570 t-473.5 -212q-152 0 -262 64.5t-156 179t-16 255.5zM360 476q-24 -113 32 -193.5t177 -80.5t212 80.5t114 193.5q24 113 -32.5 194t-176.5 81q-121 0 -211.5 -81.5t-114.5 -193.5z" />
<glyph unicode="&#xf1;" d="M52 0l232 1092h258l-37 -168q56 86 157.5 138.5t224.5 52.5q180 0 266.5 -117t44.5 -315l-145 -683h-266l137 645q26 123 -16 185t-143 62q-117 0 -206 -87.5t-125 -258.5l-117 -546h-265zM443 1286q23 105 112 178.5t194 73.5q104 0 161 -73l21 -25q18 -23 52 -23 q33 0 62.5 24.5t36.5 57.5h170q-22 -105 -111.5 -178.5t-193.5 -73.5q-105 0 -163 73l-19 26q-18 22 -52 22t-63 -24t-37 -58h-170z" />
<glyph unicode="&#xf2;" horiz-adv-x="1228" d="M75.5 310q-18.5 105 9.5 236q54 257 237 413t414 156q113 0 202.5 -40t144 -114t73.5 -179t-9 -236q-55 -257 -238 -413t-414 -156q-113 0 -202.5 40t-144 114t-73 179zM361 546q-34 -161 18 -252.5t163 -91.5t202 91.5t125 252.5q35 162 -16 254t-164 92 q-111 0 -202.5 -92.5t-125.5 -253.5zM529 1547h302l72 -349h-149z" />
<glyph unicode="&#xf3;" horiz-adv-x="1228" d="M75.5 310q-18.5 105 9.5 236q54 257 237 413t414 156q113 0 202.5 -40t144 -114t73.5 -179t-9 -236q-55 -257 -238 -413t-414 -156q-113 0 -202.5 40t-144 114t-73 179zM361 546q-34 -161 18 -252.5t163 -91.5t202 91.5t125 252.5q35 162 -16 254t-164 92 q-111 0 -202.5 -92.5t-125.5 -253.5zM604 1198l220 349h302l-372 -349h-150z" />
<glyph unicode="&#xf4;" horiz-adv-x="1228" d="M75.5 310q-18.5 105 9.5 236q54 257 237 413t414 156q113 0 202.5 -40t144 -114t73.5 -179t-9 -236q-55 -257 -238 -413t-414 -156q-113 0 -202.5 40t-144 114t-73 179zM361 546q-34 -161 18 -252.5t163 -91.5t202 91.5t125 252.5q35 162 -16 254t-164 92 q-111 0 -202.5 -92.5t-125.5 -253.5zM451 1198l260 349h233l112 -349h-194l-66 198l-151 -198h-194z" />
<glyph unicode="&#xf5;" horiz-adv-x="1228" d="M75.5 310q-18.5 105 9.5 236q54 257 237 413t414 156q113 0 202.5 -40t144 -114t73.5 -179t-9 -236q-55 -257 -238 -413t-414 -156q-113 0 -202.5 40t-144 114t-73 179zM361 546q-34 -161 18 -252.5t163 -91.5t202 91.5t125 252.5q35 162 -16 254t-164 92 q-111 0 -202.5 -92.5t-125.5 -253.5zM391 1286q22 105 111 178.5t194 73.5q104 0 161 -73l21 -25q18 -23 52 -23t63 24t37 58h170q-23 -105 -112 -178.5t-194 -73.5q-103 0 -161 73l-22 26q-18 22 -51 22q-34 0 -63 -24.5t-36 -57.5h-170z" />
<glyph unicode="&#xf6;" horiz-adv-x="1228" d="M75.5 310q-18.5 105 9.5 236q54 257 237 413t414 156q113 0 202.5 -40t144 -114t73.5 -179t-9 -236q-55 -257 -238 -413t-414 -156q-113 0 -202.5 40t-144 114t-73 179zM361 546q-34 -161 18 -252.5t163 -91.5t202 91.5t125 252.5q35 162 -16 254t-164 92 q-111 0 -202.5 -92.5t-125.5 -253.5zM460 1262l54 252h231l-53 -252h-232zM843 1262l54 252h232l-55 -252h-231z" />
<glyph unicode="&#xf8;" horiz-adv-x="1228" d="M8 -76l156 187q-139 160 -79 435q54 257 237 413t414 156q127 0 229 -52l88 105h170l-157 -186q66 -76 87.5 -185t-6.5 -251q-55 -257 -238 -413t-414 -156q-127 0 -228 52l-90 -105h-169zM360 343l435 519q-43 30 -106 30q-111 0 -202.5 -92.5t-125.5 -253.5 q-25 -119 -1 -203zM435 231q42 -29 107 -29q111 0 202 91.5t125 252.5q25 119 3 205z" />
<glyph unicode="&#xf9;" d="M138 410l146 682h265l-136 -644q-26 -123 16 -184.5t143 -61.5q117 0 205.5 86.5t126.5 257.5l115 546h266l-232 -1092h-258l36 168q-56 -86 -157.5 -138.5t-224.5 -52.5q-180 0 -266.5 117.5t-44.5 315.5zM566 1547h302l71 -349h-149z" />
<glyph unicode="&#xfa;" d="M138 410l146 682h265l-136 -644q-26 -123 16 -184.5t143 -61.5q117 0 205.5 86.5t126.5 257.5l115 546h266l-232 -1092h-258l36 168q-56 -86 -157.5 -138.5t-224.5 -52.5q-180 0 -266.5 117.5t-44.5 315.5zM654 1198l220 349h302l-372 -349h-150z" />
<glyph unicode="&#xfb;" d="M138 410l146 682h265l-136 -644q-26 -123 16 -184.5t143 -61.5q117 0 205.5 86.5t126.5 257.5l115 546h266l-232 -1092h-258l36 168q-56 -86 -157.5 -138.5t-224.5 -52.5q-180 0 -266.5 117.5t-44.5 315.5zM504 1198l261 349h232l112 -349h-194l-65 198l-152 -198h-194z " />
<glyph unicode="&#xfc;" d="M138 410l146 682h265l-136 -644q-26 -123 16 -184.5t143 -61.5q117 0 205.5 86.5t126.5 257.5l115 546h266l-232 -1092h-258l36 168q-56 -86 -157.5 -138.5t-224.5 -52.5q-180 0 -266.5 117.5t-44.5 315.5zM510 1262l53 252h232l-55 -252h-230zM892 1262l55 252h230 l-53 -252h-232z" />
<glyph unicode="&#xfd;" horiz-adv-x="1155" d="M-65 -372l45 213q53 -23 114 -23q105 0 144 61q9 3 37 47.5t39 65.5l-197 1100h293l106 -814l466 814h291l-797 -1298q-18 -31 -47 -61t-71.5 -60t-104 -48.5t-130.5 -18.5q-102 0 -188 22zM546 1198l220 349h302l-372 -349h-150z" />
<glyph unicode="&#xfe;" horiz-adv-x="1316" d="M-29 -379l404 1896h265l-117 -551q54 75 157 123.5t197 48.5q96 0 174.5 -40t129 -115t67 -183t-11.5 -243q-37 -174 -134 -308.5t-220 -203t-251 -68.5q-93 0 -177 47.5t-107 119.5l-110 -523h-266zM435 557q-35 -167 19.5 -261t167.5 -94t207.5 94t129.5 261 q36 168 -17 262t-168 94q-113 0 -208 -94t-131 -262z" />
<glyph unicode="&#xff;" horiz-adv-x="1155" d="M-65 -372l45 213q53 -23 114 -23q105 0 144 61q9 3 37 47.5t39 65.5l-197 1100h293l106 -814l466 814h291l-797 -1298q-18 -31 -47 -61t-71.5 -60t-104 -48.5t-130.5 -18.5q-102 0 -188 22zM422 1262l53 252h232l-55 -252h-230zM804 1262l55 252h230l-53 -252h-232z" />
<glyph unicode="&#x152;" horiz-adv-x="2139" d="M137 759q75 351 313.5 566t550.5 215q119 0 212.5 -42.5t150.5 -123.5l30 143h824l-52 -240h-534l-85 -394h521l-52 -240h-519l-86 -405h549l-50 -238h-837l28 141q-190 -164 -432 -164q-205 0 -343 97t-188 275t-1 410zM437 759q-54 -251 26.5 -397.5t255.5 -146.5 q170 0 315.5 147.5t198.5 396.5t-29.5 396t-253.5 147q-175 0 -317 -146t-196 -397z" />
<glyph unicode="&#x153;" horiz-adv-x="1953" d="M75.5 310q-18.5 105 9.5 236q54 257 237 413t414 156q123 0 215.5 -49t136.5 -138q80 89 189 138t229 49q227 0 331.5 -153.5t48.5 -415.5l-15 -73h-735q-10 -132 54.5 -207.5t183.5 -75.5q134 0 237 85l123 -155q-198 -143 -420 -143q-132 0 -230.5 51.5t-149.5 144.5 q-87 -94 -200.5 -145t-238.5 -51q-113 0 -202.5 40t-144 114t-73 179zM361 546q-34 -161 18 -252.5t163 -91.5t202 91.5t125 252.5q35 162 -16 254t-164 92q-111 0 -202.5 -92.5t-125.5 -253.5zM1180 663h458q7 122 -38.5 184.5t-132.5 62.5q-89 0 -165.5 -65t-121.5 -182z " />
<glyph unicode="&#x178;" horiz-adv-x="1260" d="M143 1517h361l212 -573l457 573h359l-733 -860l-139 -657h-288l139 657zM552 1620l53 251h231l-53 -251h-231zM934 1620l54 251h232l-53 -251h-233z" />
<glyph unicode="&#x2c6;" horiz-adv-x="682" d="M177 1198l261 349h233l112 -349h-194l-66 198l-151 -198h-195z" />
<glyph unicode="&#x2dc;" horiz-adv-x="866" d="M209 1286q22 105 112 178.5t195 73.5q104 0 161 -73l21 -25q18 -23 51 -23t62.5 24.5t36.5 57.5h170q-22 -105 -111.5 -178.5t-193.5 -73.5t-162 73l-20 26q-18 22 -52 22t-63 -24t-37 -58h-170z" />
<glyph unicode="&#x2000;" horiz-adv-x="977" />
<glyph unicode="&#x2001;" horiz-adv-x="1954" />
<glyph unicode="&#x2002;" horiz-adv-x="977" />
<glyph unicode="&#x2003;" horiz-adv-x="1954" />
<glyph unicode="&#x2004;" horiz-adv-x="651" />
<glyph unicode="&#x2005;" horiz-adv-x="488" />
<glyph unicode="&#x2006;" horiz-adv-x="325" />
<glyph unicode="&#x2007;" horiz-adv-x="325" />
<glyph unicode="&#x2008;" horiz-adv-x="244" />
<glyph unicode="&#x2009;" horiz-adv-x="390" />
<glyph unicode="&#x200a;" horiz-adv-x="108" />
<glyph unicode="&#x2010;" horiz-adv-x="705" d="M76 473l41 190h523l-41 -190h-523z" />
<glyph unicode="&#x2011;" horiz-adv-x="705" d="M76 473l41 190h523l-41 -190h-523z" />
<glyph unicode="&#x2012;" horiz-adv-x="705" d="M76 473l41 190h523l-41 -190h-523z" />
<glyph unicode="&#x2013;" d="M76 473l41 190h1153l-41 -190h-1153z" />
<glyph unicode="&#x2014;" horiz-adv-x="1949" d="M76 473l41 190h1767l-41 -190h-1767z" />
<glyph unicode="&#x2018;" horiz-adv-x="591" d="M190 1009l303 508h161l-172 -508h-292z" />
<glyph unicode="&#x2019;" horiz-adv-x="591" d="M244 1009l172 508h292l-303 -508h-161z" />
<glyph unicode="&#x201a;" horiz-adv-x="584" d="M-35 -231l172 509h292l-302 -509h-162z" />
<glyph unicode="&#x201c;" horiz-adv-x="1001" d="M190 1009l303 508h161l-172 -508h-292zM607 1009l303 508h161l-171 -508h-293z" />
<glyph unicode="&#x201d;" horiz-adv-x="1001" d="M237 1009l171 508h293l-304 -508h-160zM654 1009l171 508h293l-303 -508h-161z" />
<glyph unicode="&#x201e;" horiz-adv-x="1001" d="M-35 -231l172 509h292l-302 -509h-162zM382 -231l172 509h293l-302 -509h-163z" />
<glyph unicode="&#x2022;" horiz-adv-x="644" d="M143 607q17 80 85.5 137t149.5 57q79 0 123.5 -57t27.5 -137t-85.5 -137t-149.5 -57q-79 0 -123.5 57t-27.5 137z" />
<glyph unicode="&#x2026;" horiz-adv-x="1456" d="M36 0l60 278h288l-59 -278h-289zM469 0l59 278h288l-59 -278h-288zM901 0l59 278h289l-60 -278h-288z" />
<glyph unicode="&#x202f;" horiz-adv-x="390" />
<glyph unicode="&#x2039;" horiz-adv-x="667" d="M127 607l304 425h264l-304 -425l123 -425h-264z" />
<glyph unicode="&#x203a;" horiz-adv-x="667" d="M2 182l301 425l-121 425h264l121 -425l-302 -425h-263z" />
<glyph unicode="&#x205f;" horiz-adv-x="488" />
<glyph unicode="&#x20ac;" horiz-adv-x="1362" d="M-8 576l28 129h138l9 54q2 9 6.5 26.5t7.5 26.5h-139l28 129h151q108 276 333.5 437.5t507.5 161.5q293 0 437 -182l-210 -173q-91 117 -271 117q-152 0 -284 -95.5t-208 -265.5h565l-28 -129h-584q-7 -25 -12 -53q-1 -5 -10 -54h584l-28 -129h-564q4 -170 95.5 -265.5 t242.5 -95.5q180 0 322 117l135 -173q-222 -182 -514 -182q-282 0 -438.5 161t-147.5 438h-152z" />
<glyph unicode="&#x2122;" horiz-adv-x="914" d="M231 1434l18 83h308l-18 -83h-101l-63 -296h-103l63 296h-104zM514 1138l82 379h146l20 -232l118 232h147l-82 -379h-97l53 247l-127 -247h-88l-22 247l-53 -247h-97z" />
<glyph unicode="&#xe000;" horiz-adv-x="1092" d="M0 0v1092h1092v-1092h-1092z" />
<glyph unicode="&#xfb01;" horiz-adv-x="1433" d="M109 880l46 212h209l29 137q27 127 137.5 215t264.5 88q98 0 188 -23l-45 -212q-53 23 -114 23q-147 0 -175 -129l-19 -99h253l-46 -212h-253l-188 -880h-264l187 880h-210zM886 0l232 1092h266l-233 -1092h-265zM1150 1259l55 258h273l-55 -258h-273z" />
<glyph unicode="&#xfb02;" horiz-adv-x="1433" d="M109 880l46 212h209l29 137q27 127 137.5 215t264.5 88q98 0 188 -23l-45 -212q-53 23 -114 23q-147 0 -175 -129l-19 -99h253l-46 -212h-253l-188 -880h-264l187 880h-210zM886 0l323 1517h266l-324 -1517h-265z" />
</font>
</defs>
</svg>
